<?xml version="1.0" encoding="UTF-8" standalone="no"?>
<!DOCTYPE svg PUBLIC "-//W3C//DTD SVG 1.1//EN" "http://www.w3.org/Graphics/SVG/1.1/DTD/svg11.dtd">
<svg version="1.1" xmlns="http://www.w3.org/2000/svg" xmlns:xlink="http://www.w3.org/1999/xlink" preserveAspectRatio="xMidYMid meet" viewBox="0 0 640 640" width="" height="8%"><defs><path d="M516.04 306.34C516.04 416.72 426.42 506.34 316.04 506.34C205.66 506.34 116.04 416.72 116.04 306.34C116.04 195.95 205.66 106.34 316.04 106.34C426.42 106.34 516.04 195.95 516.04 306.34Z" id="b1iqABzjcX"></path><radialGradient id="gradientaBxkfJtMD" gradientUnits="userSpaceOnUse" cx="316.04" cy="106.34" dx="316.04" dy="506.34" r="400"><stop style="stop-color: #95b0c3;stop-opacity: 1" offset="0%"></stop><stop style="stop-color: #010000;stop-opacity: 1" offset="100%"></stop></radialGradient><path d="M351.04 174.01C351.04 193.33 335.36 209.01 316.04 209.01C296.72 209.01 281.04 193.33 281.04 174.01C281.04 154.69 296.72 139.01 316.04 139.01C335.36 139.01 351.04 154.69 351.04 174.01Z" id="a21hIO9ToH"></path><path d="M215.84 309.75C215.84 329.07 200.16 344.75 180.84 344.75C161.52 344.75 145.84 329.07 145.84 309.75C145.84 290.44 161.52 274.75 180.84 274.75C200.16 274.75 215.84 290.44 215.84 309.75Z" id="epc4ilBg"></path><path d="M489.11 309.75C489.11 329.07 473.43 344.75 454.11 344.75C434.79 344.75 419.11 329.07 419.11 309.75C419.11 290.44 434.79 274.75 454.11 274.75C473.43 274.75 489.11 290.44 489.11 309.75Z" id="a1KGm8YEqY"></path><path d="M351.04 309.75C351.04 329.07 335.36 344.75 316.04 344.75C296.72 344.75 281.04 329.07 281.04 309.75C281.04 290.44 296.72 274.75 316.04 274.75C335.36 274.75 351.04 290.44 351.04 309.75Z" id="avULlcWpf"></path><path d="M351.04 439.57C351.04 458.89 335.36 474.57 316.04 474.57C296.72 474.57 281.04 458.89 281.04 439.57C281.04 420.25 296.72 404.57 316.04 404.57C335.36 404.57 351.04 420.25 351.04 439.57Z" id="a3QGDVDyu9"></path></defs><g><g><g><use xlink:href="#b1iqABzjcX" opacity="1" fill="url(#gradientaBxkfJtMD)"></use><g><use xlink:href="#b1iqABzjcX" opacity="1" fill-opacity="0" stroke="#000000" stroke-width="15" stroke-opacity="1"></use></g></g><g><use xlink:href="#a21hIO9ToH" opacity="1" fill="#000000" fill-opacity="1"></use><g><use xlink:href="#a21hIO9ToH" opacity="1" fill-opacity="0" stroke="#000000" stroke-width="5" stroke-opacity="1"></use></g></g><g><use xlink:href="#epc4ilBg" opacity="1" fill="#000000" fill-opacity="1"></use><g><use xlink:href="#epc4ilBg" opacity="1" fill-opacity="0" stroke="#000000" stroke-width="5" stroke-opacity="1"></use></g></g><g><use xlink:href="#a1KGm8YEqY" opacity="1" fill="#000000" fill-opacity="1"></use><g><use xlink:href="#a1KGm8YEqY" opacity="1" fill-opacity="0" stroke="#000000" stroke-width="5" stroke-opacity="1"></use></g></g><g><use xlink:href="#avULlcWpf" opacity="1" fill="#000000" fill-opacity="1"></use><g><use xlink:href="#avULlcWpf" opacity="1" fill-opacity="0" stroke="#000000" stroke-width="5" stroke-opacity="1"></use></g></g><g><use xlink:href="#a3QGDVDyu9" opacity="1" fill="#000000" fill-opacity="1"></use><g><use xlink:href="#a3QGDVDyu9" opacity="1" fill-opacity="0" stroke="#000000" stroke-width="5" stroke-opacity="1"></use></g></g></g></g></svg>